#!OML:ASF I:\Actors\actors\Patient Classification 2\Patient 1\Session 1\actor1.ASF
:FULLY-SPECIFIED
:DEGREES
171
root -0.505221 18.8488 5.39334 21.6476 0.294181 -1.37998
lowerback 25.166 0.127312 1.35834
upperback 4.20764 0.596646 0.743447
thorax -9.33228 0.247427 -0.149137
lowerneck -8.37906 -1.72073 -0.639893
upperneck -2.92799 -2.25064 2.32698
head 0.519351 -1.09871 0.756859
rclavicle -4.87022e-015 -5.96354e-015
rhumerus 1.56626 29.902 -71.8864
rradius 41.1478
rwrist 12.4493
rhand -29.9785 -37.0054
rfingers 7.12502
rthumb -3.29666 -66.9597
lclavicle -4.87022e-015 -5.96354e-015
lhumerus 7.62581 -21.1295 78.2954
lradius 37.638
lwrist -19.7805
lhand -24.1028 -48.5008
lfingers 7.12502
lthumb 2.37803 -18.5344
rfemur -20.2158 0.92568 14.0089
rtibia 6.9032
rfoot -18.3627 -16.3635
rtoes -4.57765
lfemur -33.7684 0.362736 -12.4752
ltibia 28.6019
lfoot -16.7876 7.65008
ltoes -55.789
172
root -0.505599 18.8482 5.39418 21.7173 0.289019 -1.39094
lowerback 25.1403 0.13135 1.38875
upperback 4.21144 0.610274 0.753871
thorax -9.31431 0.253128 -0.159337
lowerneck -8.4398 -1.69236 -0.658668
upperneck -2.97551 -2.21009 2.32679
head 0.514251 -1.07813 0.760902
rclavicle -9.93923e-017 -3.97569e-015
rhumerus 1.62848 29.9666 -71.7606
rradius 41.1668
rwrist 12.3241
rhand -30.0706 -37.2616
rfingers 7.12502
rthumb -3.38563 -67.2145
lclavicle -9.93923e-017 -3.97569e-015
lhumerus 7.7083 -21.0505 78.3546
lradius 37.5799
lwrist -19.8579
lhand -23.9607 -48.4939
lfingers 7.12502
lthumb 2.51531 -18.529
rfemur -20.3325 0.929027 14.0208
rtibia 6.97641
rfoot -18.3721 -16.3549
rtoes -4.71242
lfemur -33.8536 0.397056 -12.473
ltibia 28.6178
lfoot -16.7498 7.64202
ltoes -55.8081
173
root -0.505729 18.8477 5.39551 21.777 0.272106 -1.3505
lowerback 25.1419 0.135157 1.39961
upperback 4.1994 0.615192 0.725515
thorax -9.32806 0.254518 -0.198628
lowerneck -8.47484 -1.67044 -0.646838
upperneck -3.02078 -2.18097 2.35048
head 0.505672 -1.0634 0.767039
rclavicle -6.26172e-015 -3.97569e-015
rhumerus 1.60886 29.9293 -71.7568
rradius 41.1809
rwrist 12.2525
rhand -30.0546 -36.6829
rfingers 7.12502
rthumb -3.37018 -66.636
lclavicle -6.26172e-015 -3.97569e-015
lhumerus 7.75938 -21.0157 78.3831
lradius 37.5552
lwrist -19.8342
lhand -23.8405 -48.4537
lfingers 7.12502
lthumb 2.63138 -18.4902
rfemur -20.4489 0.922248 13.9729
rtibia 7.07727
rfoot -18.4095 -16.3294
rtoes -4.81067
lfemur -33.9178 0.367452 -12.5138
ltibia 28.628
lfoot -16.7499 7.70079
ltoes -55.8711
174
root -0.506204 18.8473 5.39736 21.8345 0.222413 -1.29878
lowerback 25.1433 0.147766 1.3512
upperback 4.18037 0.61655 0.702681
thorax -9.3504 0.256073 -0.196606
lowerneck -8.40776 -1.61828 -0.593403
upperneck -3.13316 -2.11394 2.3383
head 0.457286 -1.03152 0.756905
rclavicle 1.09332e-015 9.93923e-017
rhumerus 1.58692 29.8432 -71.8255
rradius 41.1476
rwrist 12.2407
rhand -30.0384 -36.4375
rfingers 7.12502
rthumb -3.35451 -66.3909
lclavicle 1.09332e-015 9.93923e-017
lhumerus 7.77523 -20.9931 78.3899
lradius 37.5681
lwrist -19.7442
lhand -23.716 -48.3486
lfingers 7.12502
lthumb 2.75161 -18.3866
rfemur -20.5892 0.940215 13.8985
rtibia 7.23179
rfoot -18.4924 -16.2594
rtoes -4.61077
lfemur -33.9664 0.352529 -12.5708
ltibia 28.6325
lfoot -16.7356 7.73193
ltoes -55.8557
175
root -0.507837 18.847 5.39648 21.8994 0.167382 -1.29652
lowerback 25.1849 0.173511 1.31293
upperback 4.14534 0.640726 0.702459
thorax -9.41154 0.267975 -0.182926
lowerneck -8.41905 -1.58208 -0.563498
upperneck -3.13908 -2.06795 2.34339
head 0.456313 -1.00857 0.754765
rclavicle -7.15625e-015 -5.66536e-015
rhumerus 1.58358 29.8054 -71.8637
rradius 41.0956
rwrist 12.1614
rhand -30.2183 -36.9507
rfingers 7.12502
rthumb -3.52824 -66.9012
lclavicle -7.15625e-015 -5.66536e-015
lhumerus 7.74917 -21.0198 78.3798
lradius 37.6237
lwrist -19.6675
lhand -23.6749 -48.2808
lfingers 7.12502
lthumb 2.79128 -18.3193
rfemur -20.7653 0.98487 13.879
rtibia 7.4119
rfoot -18.5512 -16.1831
rtoes -4.44209
lfemur -34.0339 0.419843 -12.5865
ltibia 28.6333
lfoot -16.6726 7.70342
ltoes -55.8433
176
root -0.510177 18.8468 5.39264 21.9562 0.133186 -1.29259
lowerback 25.2892 0.199283 1.29498
upperback 4.1005 0.671298 0.699728
thorax -9.51605 0.28186 -0.186197
lowerneck -8.45813 -1.57312 -0.492506
upperneck -3.14185 -2.06228 2.28231
head 0.459944 -1.00688 0.723882
rclavicle 3.18055e-015 2.38542e-015
rhumerus 1.54088 29.7545 -71.8942
rradius 41.0907
rwrist 12.1011
rhand -30.3273 -37.1696
rfingers 7.12502
rthumb -3.63349 -67.1184
lclavicle 3.18055e-015 2.38542e-015
lhumerus 7.7295 -21.0592 78.382
lradius 37.6722
lwrist -19.6516
lhand -23.751 -48.2758
lfingers 7.12502
lthumb 2.7178 -18.3133
rfemur -20.9368 1.01219 13.8721
rtibia 7.5714
rfoot -18.5566 -16.1737
rtoes -4.68146
lfemur -34.1167 0.45732 -12.586
ltibia 28.6414
lfoot -16.6473 7.71287
ltoes -55.8599
177
root -0.51096 18.8463 5.39043 22.0038 0.123092 -1.27293
lowerback 25.3758 0.202316 1.31166
upperback 4.06534 0.680965 0.692996
thorax -9.60021 0.28499 -0.206959
lowerneck -8.4707 -1.57577 -0.45014
upperneck -3.16821 -2.06926 2.22394
head 0.452384 -1.01161 0.698486
rclavicle -7.15625e-015 -1.98785e-016
rhumerus 1.47708 29.6841 -71.9413
rradius 41.0983
rwrist 12.1325
rhand -30.2415 -36.9924
rfingers 7.12502
rthumb -3.55071 -66.9426
lclavicle -7.15625e-015 -1.98785e-016
lhumerus 7.74863 -21.0877 78.3892
lradius 37.6849
lwrist -19.5859
lhand -23.8526 -48.2711
lfingers 7.12502
lthumb 2.6197 -18.3074
rfemur -21.0801 1.00984 13.851
rtibia 7.7194
rfoot -18.5713 -16.1644
rtoes -4.867
lfemur -34.189 0.442138 -12.5966
ltibia 28.6555
lfoot -16.672 7.77071
ltoes -55.9244
178
root -0.511257 18.8457 5.39039 22.0621 0.106041 -1.28116
lowerback 25.3952 0.197865 1.34411
upperback 4.04898 0.684918 0.697917
thorax -9.62835 0.285552 -0.22157
lowerneck -8.55836 -1.58894 -0.519831
upperneck -3.10782 -2.0817 2.26339
head 0.48767 -1.01581 0.721386
rclavicle -1.2921e-015 -3.77691e-015
rhumerus 1.44316 29.644 -71.9741
rradius 41.1128
rwrist 12.1814
rhand -30.0273 -37.1482
rfingers 7.12502
rthumb -3.34378 -67.1017
lclavicle -1.2921e-015 -3.77691e-015
lhumerus 7.79599 -21.0805 78.3768
lradius 37.6567
lwrist -19.4947
lhand -23.9027 -48.2492
lfingers 7.12502
lthumb 2.57131 -18.285
rfemur -21.2246 1.02385 13.8547
rtibia 7.86757
rfoot -18.5953 -16.1244
rtoes -4.84449
lfemur -34.2555 0.45782 -12.5913
ltibia 28.6631
lfoot -16.6714 7.78757
ltoes -55.9404
179
root -0.512131 18.8458 5.39084 22.1032 0.0825969 -1.30376
lowerback 25.3909 0.194436 1.37358
upperback 4.05367 0.687977 0.697331
thorax -9.62043 0.286001 -0.240126
lowerneck -8.63566 -1.5903 -0.560586
upperneck -3.07021 -2.08049 2.29089
head 0.513365 -1.01378 0.736284
rclavicle -1.78906e-015 -1.2921e-015
rhumerus 1.44203 29.6039 -72.0142
rradius 41.1457
rwrist 12.1897
rhand -29.9123 -37.3259
rfingers 7.12502
rthumb -3.23273 -67.2811
lclavicle -1.78906e-015 -1.2921e-015
lhumerus 7.86914 -21.0219 78.365
lradius 37.5833
lwrist -19.5014
lhand -23.9503 -48.2115
lfingers 7.12502
lthumb 2.52539 -18.2467
rfemur -21.3341 1.05304 13.8745
rtibia 7.98325
rfoot -18.5883 -16.1383
rtoes -5.1026
lfemur -34.2921 0.462946 -12.5622
ltibia 28.6611
lfoot -16.6667 7.79251
ltoes -55.9007
180
root -0.512502 18.8466 5.39177 22.1113 0.0723027 -1.28569
lowerback 25.384 0.188705 1.38685
upperback 4.07383 0.681833 0.680791
thorax -9.59384 0.282661 -0.264044
lowerneck -8.66024 -1.59458 -0.555512
upperneck -3.08295 -2.08653 2.30332
head 0.513677 -1.01667 0.738997
rclavicle 7.7526e-015 7.7526e-015
rhumerus 1.45173 29.5542 -72.0546
rradius 41.1582
rwrist 12.1784
rhand -30.0348 -37.055
rfingers 7.12502
rthumb -3.3511 -67.0084
lclavicle 7.7526e-015 7.7526e-015
lhumerus 7.94285 -20.9948 78.3577
lradius 37.5192
lwrist -19.5542
lhand -24.0702 -48.1701
lfingers 7.12502
lthumb 2.40957 -18.2039
rfemur -21.3877 1.0543 13.8523
rtibia 8.07053
rfoot -18.5959 -16.1476
rtoes -5.32023
lfemur -34.2946 0.466728 -12.5862
ltibia 28.6506
lfoot -16.6521 7.81064
ltoes -55.9488
181
root -0.512938 18.8475 5.39209 22.1406 0.0584448 -1.23441
lowerback 25.3707 0.177919 1.35877
upperback 4.07437 0.658233 0.661606
thorax -9.58671 0.27234 -0.261432
lowerneck -8.64857 -1.60004 -0.559982
upperneck -3.1081 -2.09306 2.32258
head 0.504284 -1.01995 0.745641
rclavicle -7.05686e-015 -3.77691e-015
rhumerus 1.45359 29.5596 -72.0841
rradius 41.1516
rwrist 12.1749
rhand -30.1186 -36.8026
rfingers 7.12502
rthumb -3.432 -66.7547
lclavicle -7.05686e-015 -3.77691e-015
lhumerus 7.95766 -20.9681 78.3365
lradius 37.4891
lwrist -19.6384
lhand -24.2077 -48.1362
lfingers 7.12502
lthumb 2.27681 -18.1686
rfemur -21.4636 1.0431 13.7952
rtibia 8.1615
rfoot -18.6077 -16.1258
rtoes -5.37097
lfemur -34.3193 0.458801 -12.645
ltibia 28.6349
lfoot -16.6079 7.82229
ltoes -55.9417
182
root -0.513575 18.8481 5.39126 22.184 0.0487349 -1.20007
lowerback 25.379 0.15916 1.33937
upperback 4.0617 0.628377 0.652367
thorax -9.60575 0.258744 -0.250845
lowerneck -8.64217 -1.6017 -0.574237
upperneck -3.11004 -2.09402 2.35445
head 0.503326 -1.01999 0.757942
rclavicle -4.47266e-015 2.5842e-015
rhumerus 1.45487 29.5981 -72.1055
rradius 41.1488
rwrist 12.1821
rhand -30.1488 -36.7519
rfingers 7.12502
rthumb -3.4612 -66.7036
lclavicle -4.47266e-015 2.5842e-015
lhumerus 7.92549 -20.9088 78.3066
lradius 37.5077
lwrist -19.71
lhand -24.2007 -48.1524
lfingers 7.12502
lthumb 2.28354 -18.1849
rfemur -21.5485 1.03562 13.7617
rtibia 8.23755
rfoot -18.6005 -16.1108
rtoes -5.37582
lfemur -34.3589 0.409087 -12.6617
ltibia 28.6243
lfoot -16.6168 7.85857
ltoes -55.8822
183
root -0.514503 18.8478 5.39026 22.22 0.0380402 -1.20703
lowerback 25.3775 0.159172 1.34148
upperback 4.06696 0.630342 0.666673
thorax -9.59922 0.259868 -0.236774
lowerneck -8.64342 -1.60598 -0.579957
upperneck -3.10844 -2.09932 2.39199
head 0.504791 -1.02215 0.770394
rclavicle 3.08116e-015 1.78906e-015
rhumerus 1.47158 29.5891 -72.0884
rradius 41.1593
rwrist 12.2399
rhand -30.1788 -36.9159
rfingers 7.12502
rthumb -3.49011 -66.8671
lclavicle 3.08116e-015 1.78906e-015
lhumerus 7.89508 -20.8557 78.3105
lradius 37.572
lwrist -19.7846
lhand -24.1017 -48.1768
lfingers 7.12502
lthumb 2.37913 -18.2103
rfemur -21.6099 1.04567 13.767
rtibia 8.27269
rfoot -18.6025 -16.089
rtoes -5.2117
lfemur -34.3998 0.42789 -12.6557
ltibia 28.6243
lfoot -16.6365 7.87984
ltoes -55.9359
184
root -0.51595 18.8471 5.38928 22.2587 0.00832371 -1.22827
lowerback 25.3593 0.176209 1.34503
upperback 4.0707 0.653737 0.676901
thorax -9.58531 0.270886 -0.234994
lowerneck -8.56486 -1.62103 -0.603719
upperneck -3.18656 -2.11594 2.44907
head 0.468653 -1.03069 0.79221
rclavicle -2.08724e-015 -4.47266e-015
rhumerus 1.47959 29.6227 -72.0904
rradius 41.1657
rwrist 12.0109
rhand -29.9594 -36.8942
rfingers 7.12502
rthumb -3.27826 -66.8487
lclavicle -2.08724e-015 -4.47266e-015
lhumerus 7.88394 -20.8161 78.3243
lradius 37.6021
lwrist -19.8796
lhand -24.0635 -48.1942
lfingers 7.12502
lthumb 2.41607 -18.2281
rfemur -21.6737 1.07751 13.7763
rtibia 8.29286
rfoot -18.6336 -16.0601
rtoes -5.02884
lfemur -34.4399 0.473991 -12.6452
ltibia 28.6287
lfoot -16.6233 7.87457
ltoes -55.9839
185
root -0.517708 18.8465 5.3885 22.2917 -0.0197073 -1.23575
lowerback 25.3446 0.187904 1.34101
upperback 4.07373 0.667198 0.676323
thorax -9.57415 0.277332 -0.237633
lowerneck -8.47411 -1.63465 -0.656848
upperneck -3.26832 -2.12788 2.52345
head 0.430046 -1.03653 0.82459
rclavicle 2.98177e-015 1.98785e-016
rhumerus 1.53934 29.761 -72.0568
rradius 41.1598
rwrist 11.474
rhand -29.4065 -36.2477
rfingers 7.12502
rthumb -2.74424 -66.2098
lclavicle 2.98177e-015 1.98785e-016
lhumerus 7.89763 -20.7911 78.3128
lradius 37.5986
lwrist -19.8844
lhand -24.0708 -48.2489
lfingers 7.12502
lthumb 2.40894 -18.2827
rfemur -21.7303 1.10371 13.7747
rtibia 8.31927
rfoot -18.6905 -16.0154
rtoes -4.80014
lfemur -34.4682 0.467897 -12.6257
ltibia 28.635
lfoot -16.6351 7.87665
ltoes -55.9266
